0
SECTION
2
HEADER
9
$EXTMAX
10
280.973200
20
119.136600
9
$EXTMIN
10
-55.131800
20
-41.453400
0
ENDSEC
0
SECTION
2
TABLES
0
TABLE
2
LAYER
70
2
0
LAYER
2
Plan
70
0
62
253
6
CONTINUOUS
0
LAYER
2
Docu
70
0
62
11
6
CONTINUOUS
0
ENDTAB
0
ENDSEC
0
SECTION
2
ENTITIES
0
TEXT
8
Docu
50
0.000
10
-8.694880
20
38.212480
40
1.000000
1
Ausbruch
0
LINE
8
Docu
10
-8.694880
20
50.678038
11
-8.694880
21
25.746922
0
LINE
8
Docu
10
3.770678
20
38.212480
11
-21.160438
21
38.212480
0
LINE
8
Plan
10
-38.014880
20
24.361860
11
20.625120
21
24.361860
0
ARC
8
Plan
10
20.625120
20
25.361860
40
1.000000
50
270.000
51
0.000
0
LINE
8
Plan
10
21.625120
20
25.361860
11
21.625120
21
51.063100
0
ARC
8
Plan
10
20.625120
20
51.063100
40
1.000000
50
0.000
51
90.000
0
LINE
8
Plan
10
20.625120
20
52.063100
11
-38.014880
21
52.063100
0
ARC
8
Plan
10
-38.014880
20
51.063100
40
1.000000
50
90.000
51
180.000
0
LINE
8
Plan
10
-39.014880
20
51.063100
11
-39.014880
21
25.361860
0
ARC
8
Plan
10
-38.014880
20
25.361860
40
1.000000
50
180.000
51
270.000
0
TEXT
8
Docu
50
0.000
10
48.465140
20
38.202800
40
1.000000
1
Ausbruch
0
LINE
8
Docu
10
48.465140
20
50.668358
11
48.465140
21
25.737242
0
LINE
8
Docu
10
60.930698
20
38.202800
11
35.999582
21
38.202800
0
LINE
8
Plan
10
29.305160
20
24.352180
11
67.625120
21
24.352180
0
ARC
8
Plan
10
67.625120
20
25.352180
40
1.000000
50
270.000
51
0.000
0
LINE
8
Plan
10
68.625120
20
25.352180
11
68.625120
21
51.053420
0
ARC
8
Plan
10
67.625120
20
51.053420
40
1.000000
50
0.000
51
90.000
0
LINE
8
Plan
10
67.625120
20
52.053420
11
29.305160
21
52.053420
0
ARC
8
Plan
10
29.305160
20
51.053420
40
1.000000
50
90.000
51
180.000
0
LINE
8
Plan
10
28.305160
20
51.053420
11
28.305160
21
25.352180
0
ARC
8
Plan
10
29.305160
20
25.352180
40
1.000000
50
180.000
51
270.000
0
TEXT
8
Docu
50
0.000
10
121.490140
20
38.202800
40
1.000000
1
Ausbruch
0
LINE
8
Docu
10
121.490140
20
50.668358
11
121.490140
21
25.737242
0
LINE
8
Docu
10
133.955698
20
38.202800
11
109.024582
21
38.202800
0
LINE
8
Plan
10
82.010140
20
24.352180
11
160.970140
21
24.352180
0
ARC
8
Plan
10
160.970140
20
25.352180
40
1.000000
50
270.000
51
0.000
0
LINE
8
Plan
10
161.970140
20
25.352180
11
161.970140
21
51.053420
0
ARC
8
Plan
10
160.970140
20
51.053420
40
1.000000
50
0.000
51
90.000
0
LINE
8
Plan
10
160.970140
20
52.053420
11
82.010140
21
52.053420
0
ARC
8
Plan
10
82.010140
20
51.053420
40
1.000000
50
90.000
51
180.000
0
LINE
8
Plan
10
81.010140
20
51.053420
11
81.010140
21
25.352180
0
ARC
8
Plan
10
82.010140
20
25.352180
40
1.000000
50
180.000
51
270.000
0
TEXT
8
Docu
50
0.000
10
193.885140
20
38.202800
40
1.000000
1
Ausbruch
0
LINE
8
Docu
10
193.885140
20
50.668358
11
193.885140
21
25.737242
0
LINE
8
Docu
10
206.350698
20
38.202800
11
181.419582
21
38.202800
0
LINE
8
Plan
10
174.725160
20
24.352180
11
213.045120
21
24.352180
0
ARC
8
Plan
10
213.045120
20
25.352180
40
1.000000
50
270.000
51
0.000
0
LINE
8
Plan
10
214.045120
20
25.352180
11
214.045120
21
51.053420
0
ARC
8
Plan
10
213.045120
20
51.053420
40
1.000000
50
0.000
51
90.000
0
LINE
8
Plan
10
213.045120
20
52.053420
11
174.725160
21
52.053420
0
ARC
8
Plan
10
174.725160
20
51.053420
40
1.000000
50
90.000
51
180.000
0
LINE
8
Plan
10
173.725160
20
51.053420
11
173.725160
21
25.352180
0
ARC
8
Plan
10
174.725160
20
25.352180
40
1.000000
50
180.000
51
270.000
0
TEXT
8
Docu
50
0.000
10
245.965140
20
38.212800
40
1.000000
1
Ausbruch
0
LINE
8
Docu
10
245.965140
20
50.678358
11
245.965140
21
25.747242
0
LINE
8
Docu
10
258.430698
20
38.212800
11
233.499582
21
38.212800
0
LINE
8
Plan
10
226.805160
20
24.362180
11
265.125120
21
24.362180
0
ARC
8
Plan
10
265.125120
20
25.362180
40
1.000000
50
270.000
51
0.000
0
LINE
8
Plan
10
266.125120
20
25.362180
11
266.125120
21
51.063420
0
ARC
8
Plan
10
265.125120
20
51.063420
40
1.000000
50
0.000
51
90.000
0
LINE
8
Plan
10
265.125120
20
52.063420
11
226.805160
21
52.063420
0
ARC
8
Plan
10
226.805160
20
51.063420
40
1.000000
50
90.000
51
180.000
0
LINE
8
Plan
10
225.805160
20
51.063420
11
225.805160
21
25.362180
0
ARC
8
Plan
10
226.805160
20
25.362180
40
1.000000
50
180.000
51
270.000
0
LINE
8
Docu
10
167.835100
20
41.452800
11
167.835100
21
47.652800
0
LINE
8
Docu
10
164.735100
20
44.552800
11
170.935100
21
44.552800
0
CIRCLE
8
Plan
10
167.835100
20
44.552800
40
1.550000
0
LINE
8
Docu
10
167.835100
20
28.752800
11
167.835100
21
34.952800
0
LINE
8
Docu
10
164.735100
20
31.852800
11
170.935100
21
31.852800
0
CIRCLE
8
Plan
10
167.835100
20
31.852800
40
1.550000
0
LINE
8
Docu
10
219.915100
20
28.752800
11
219.915100
21
34.952800
0
LINE
8
Docu
10
216.815100
20
31.852800
11
223.015100
21
31.852800
0
CIRCLE
8
Plan
10
219.915100
20
31.852800
40
1.550000
0
LINE
8
Docu
10
219.915100
20
41.452800
11
219.915100
21
47.652800
0
LINE
8
Docu
10
216.815100
20
44.552800
11
223.015100
21
44.552800
0
CIRCLE
8
Plan
10
219.915100
20
44.552800
40
1.550000
0
LINE
8
Docu
10
219.915600
20
94.983100
11
219.915600
21
101.183100
0
LINE
8
Docu
10
216.815600
20
98.083100
11
223.015600
21
98.083100
0
CIRCLE
8
Plan
10
219.915600
20
98.083100
40
1.550000
0
LINE
8
Docu
10
219.915600
20
82.283100
11
219.915600
21
88.483100
0
LINE
8
Docu
10
216.815600
20
85.383100
11
223.015600
21
85.383100
0
CIRCLE
8
Plan
10
219.915600
20
85.383100
40
1.550000
0
LINE
8
Docu
10
167.835600
20
82.283100
11
167.835600
21
88.483100
0
LINE
8
Docu
10
164.735600
20
85.383100
11
170.935600
21
85.383100
0
CIRCLE
8
Plan
10
167.835600
20
85.383100
40
1.550000
0
LINE
8
Docu
10
167.835600
20
94.983100
11
167.835600
21
101.183100
0
LINE
8
Docu
10
164.735600
20
98.083100
11
170.935600
21
98.083100
0
CIRCLE
8
Plan
10
167.835600
20
98.083100
40
1.550000
0
TEXT
8
Docu
50
0.000
10
245.965640
20
91.743100
40
1.000000
1
Ausbruch
0
LINE
8
Docu
10
245.965640
20
104.208658
11
245.965640
21
79.277542
0
LINE
8
Docu
10
258.431198
20
91.743100
11
233.500082
21
91.743100
0
LINE
8
Plan
10
226.805660
20
77.892480
11
265.125620
21
77.892480
0
ARC
8
Plan
10
265.125620
20
78.892480
40
1.000000
50
270.000
51
0.000
0
LINE
8
Plan
10
266.125620
20
78.892480
11
266.125620
21
104.593720
0
ARC
8
Plan
10
265.125620
20
104.593720
40
1.000000
50
0.000
51
90.000
0
LINE
8
Plan
10
265.125620
20
105.593720
11
226.805660
21
105.593720
0
ARC
8
Plan
10
226.805660
20
104.593720
40
1.000000
50
90.000
51
180.000
0
LINE
8
Plan
10
225.805660
20
104.593720
11
225.805660
21
78.892480
0
ARC
8
Plan
10
226.805660
20
78.892480
40
1.000000
50
180.000
51
270.000
0
TEXT
8
Docu
50
0.000
10
193.885640
20
91.733100
40
1.000000
1
Ausbruch
0
LINE
8
Docu
10
193.885640
20
104.198658
11
193.885640
21
79.267542
0
LINE
8
Docu
10
206.351198
20
91.733100
11
181.420082
21
91.733100
0
LINE
8
Plan
10
174.725660
20
77.882480
11
213.045620
21
77.882480
0
ARC
8
Plan
10
213.045620
20
78.882480
40
1.000000
50
270.000
51
0.000
0
LINE
8
Plan
10
214.045620
20
78.882480
11
214.045620
21
104.583720
0
ARC
8
Plan
10
213.045620
20
104.583720
40
1.000000
50
0.000
51
90.000
0
LINE
8
Plan
10
213.045620
20
105.583720
11
174.725660
21
105.583720
0
ARC
8
Plan
10
174.725660
20
104.583720
40
1.000000
50
90.000
51
180.000
0
LINE
8
Plan
10
173.725660
20
104.583720
11
173.725660
21
78.882480
0
ARC
8
Plan
10
174.725660
20
78.882480
40
1.000000
50
180.000
51
270.000
0
TEXT
8
Docu
50
0.000
10
121.490640
20
91.733100
40
1.000000
1
Ausbruch
0
LINE
8
Docu
10
121.490640
20
104.198658
11
121.490640
21
79.267542
0
LINE
8
Docu
10
133.956198
20
91.733100
11
109.025082
21
91.733100
0
LINE
8
Plan
10
82.010640
20
77.882480
11
160.970640
21
77.882480
0
ARC
8
Plan
10
160.970640
20
78.882480
40
1.000000
50
270.000
51
0.000
0
LINE
8
Plan
10
161.970640
20
78.882480
11
161.970640
21
104.583720
0
ARC
8
Plan
10
160.970640
20
104.583720
40
1.000000
50
0.000
51
90.000
0
LINE
8
Plan
10
160.970640
20
105.583720
11
82.010640
21
105.583720
0
ARC
8
Plan
10
82.010640
20
104.583720
40
1.000000
50
90.000
51
180.000
0
LINE
8
Plan
10
81.010640
20
104.583720
11
81.010640
21
78.882480
0
ARC
8
Plan
10
82.010640
20
78.882480
40
1.000000
50
180.000
51
270.000
0
TEXT
8
Docu
50
0.000
10
48.465640
20
91.733100
40
1.000000
1
Ausbruch
0
LINE
8
Docu
10
48.465640
20
104.198658
11
48.465640
21
79.267542
0
LINE
8
Docu
10
60.931198
20
91.733100
11
36.000082
21
91.733100
0
LINE
8
Plan
10
29.305660
20
77.882480
11
67.625620
21
77.882480
0
ARC
8
Plan
10
67.625620
20
78.882480
40
1.000000
50
270.000
51
0.000
0
LINE
8
Plan
10
68.625620
20
78.882480
11
68.625620
21
104.583720
0
ARC
8
Plan
10
67.625620
20
104.583720
40
1.000000
50
0.000
51
90.000
0
LINE
8
Plan
10
67.625620
20
105.583720
11
29.305660
21
105.583720
0
ARC
8
Plan
10
29.305660
20
104.583720
40
1.000000
50
90.000
51
180.000
0
LINE
8
Plan
10
28.305660
20
104.583720
11
28.305660
21
78.882480
0
ARC
8
Plan
10
29.305660
20
78.882480
40
1.000000
50
180.000
51
270.000
0
TEXT
8
Docu
50
0.000
10
-8.694380
20
91.742780
40
1.000000
1
Ausbruch
0
LINE
8
Docu
10
-8.694380
20
104.208338
11
-8.694380
21
79.277222
0
LINE
8
Docu
10
3.771178
20
91.742780
11
-21.159938
21
91.742780
0
LINE
8
Plan
10
-38.014380
20
77.892160
11
20.625620
21
77.892160
0
ARC
8
Plan
10
20.625620
20
78.892160
40
1.000000
50
270.000
51
0.000
0
LINE
8
Plan
10
21.625620
20
78.892160
11
21.625620
21
104.593400
0
ARC
8
Plan
10
20.625620
20
104.593400
40
1.000000
50
0.000
51
90.000
0
LINE
8
Plan
10
20.625620
20
105.593400
11
-38.014380
21
105.593400
0
ARC
8
Plan
10
-38.014380
20
104.593400
40
1.000000
50
90.000
51
180.000
0
LINE
8
Plan
10
-39.014380
20
104.593400
11
-39.014380
21
78.892160
0
ARC
8
Plan
10
-38.014380
20
78.892160
40
1.000000
50
180.000
51
270.000
0
LINE
8
Docu
10
219.915100
20
-12.077300
11
219.915100
21
-5.877300
0
LINE
8
Docu
10
216.815100
20
-8.977300
11
223.015100
21
-8.977300
0
CIRCLE
8
Plan
10
219.915100
20
-8.977300
40
1.550000
0
LINE
8
Docu
10
219.915100
20
-24.777300
11
219.915100
21
-18.577300
0
LINE
8
Docu
10
216.815100
20
-21.677300
11
223.015100
21
-21.677300
0
CIRCLE
8
Plan
10
219.915100
20
-21.677300
40
1.550000
0
LINE
8
Docu
10
167.835100
20
-24.777300
11
167.835100
21
-18.577300
0
LINE
8
Docu
10
164.735100
20
-21.677300
11
170.935100
21
-21.677300
0
CIRCLE
8
Plan
10
167.835100
20
-21.677300
40
1.550000
0
LINE
8
Docu
10
167.835100
20
-12.077300
11
167.835100
21
-5.877300
0
LINE
8
Docu
10
164.735100
20
-8.977300
11
170.935100
21
-8.977300
0
CIRCLE
8
Plan
10
167.835100
20
-8.977300
40
1.550000
0
TEXT
8
Docu
50
0.000
10
245.965140
20
-15.317300
40
1.000000
1
Ausbruch
0
LINE
8
Docu
10
245.965140
20
-2.851742
11
245.965140
21
-27.782858
0
LINE
8
Docu
10
258.430698
20
-15.317300
11
233.499582
21
-15.317300
0
LINE
8
Plan
10
226.805160
20
-29.167920
11
265.125120
21
-29.167920
0
ARC
8
Plan
10
265.125120
20
-28.167920
40
1.000000
50
270.000
51
0.000
0
LINE
8
Plan
10
266.125120
20
-28.167920
11
266.125120
21
-2.466680
0
ARC
8
Plan
10
265.125120
20
-2.466680
40
1.000000
50
0.000
51
90.000
0
LINE
8
Plan
10
265.125120
20
-1.466680
11
226.805160
21
-1.466680
0
ARC
8
Plan
10
226.805160
20
-2.466680
40
1.000000
50
90.000
51
180.000
0
LINE
8
Plan
10
225.805160
20
-2.466680
11
225.805160
21
-28.167920
0
ARC
8
Plan
10
226.805160
20
-28.167920
40
1.000000
50
180.000
51
270.000
0
TEXT
8
Docu
50
0.000
10
193.885140
20
-15.327300
40
1.000000
1
Ausbruch
0
LINE
8
Docu
10
193.885140
20
-2.861742
11
193.885140
21
-27.792858
0
LINE
8
Docu
10
206.350698
20
-15.327300
11
181.419582
21
-15.327300
0
LINE
8
Plan
10
174.725160
20
-29.177920
11
213.045120
21
-29.177920
0
ARC
8
Plan
10
213.045120
20
-28.177920
40
1.000000
50
270.000
51
0.000
0
LINE
8
Plan
10
214.045120
20
-28.177920
11
214.045120
21
-2.476680
0
ARC
8
Plan
10
213.045120
20
-2.476680
40
1.000000
50
0.000
51
90.000
0
LINE
8
Plan
10
213.045120
20
-1.476680
11
174.725160
21
-1.476680
0
ARC
8
Plan
10
174.725160
20
-2.476680
40
1.000000
50
90.000
51
180.000
0
LINE
8
Plan
10
173.725160
20
-2.476680
11
173.725160
21
-28.177920
0
ARC
8
Plan
10
174.725160
20
-28.177920
40
1.000000
50
180.000
51
270.000
0
TEXT
8
Docu
50
0.000
10
121.490140
20
-15.327300
40
1.000000
1
Ausbruch
0
LINE
8
Docu
10
121.490140
20
-2.861742
11
121.490140
21
-27.792858
0
LINE
8
Docu
10
133.955698
20
-15.327300
11
109.024582
21
-15.327300
0
LINE
8
Plan
10
82.010140
20
-29.177920
11
160.970140
21
-29.177920
0
ARC
8
Plan
10
160.970140
20
-28.177920
40
1.000000
50
270.000
51
0.000
0
LINE
8
Plan
10
161.970140
20
-28.177920
11
161.970140
21
-2.476680
0
ARC
8
Plan
10
160.970140
20
-2.476680
40
1.000000
50
0.000
51
90.000
0
LINE
8
Plan
10
160.970140
20
-1.476680
11
82.010140
21
-1.476680
0
ARC
8
Plan
10
82.010140
20
-2.476680
40
1.000000
50
90.000
51
180.000
0
LINE
8
Plan
10
81.010140
20
-2.476680
11
81.010140
21
-28.177920
0
ARC
8
Plan
10
82.010140
20
-28.177920
40
1.000000
50
180.000
51
270.000
0
TEXT
8
Docu
50
0.000
10
48.465140
20
-15.327300
40
1.000000
1
Ausbruch
0
LINE
8
Docu
10
48.465140
20
-2.861742
11
48.465140
21
-27.792858
0
LINE
8
Docu
10
60.930698
20
-15.327300
11
35.999582
21
-15.327300
0
LINE
8
Plan
10
29.305160
20
-29.177920
11
67.625120
21
-29.177920
0
ARC
8
Plan
10
67.625120
20
-28.177920
40
1.000000
50
270.000
51
0.000
0
LINE
8
Plan
10
68.625120
20
-28.177920
11
68.625120
21
-2.476680
0
ARC
8
Plan
10
67.625120
20
-2.476680
40
1.000000
50
0.000
51
90.000
0
LINE
8
Plan
10
67.625120
20
-1.476680
11
29.305160
21
-1.476680
0
ARC
8
Plan
10
29.305160
20
-2.476680
40
1.000000
50
90.000
51
180.000
0
LINE
8
Plan
10
28.305160
20
-2.476680
11
28.305160
21
-28.177920
0
ARC
8
Plan
10
29.305160
20
-28.177920
40
1.000000
50
180.000
51
270.000
0
TEXT
8
Docu
50
0.000
10
-8.694880
20
-15.317620
40
1.000000
1
Ausbruch
0
LINE
8
Docu
10
-8.694880
20
-2.852062
11
-8.694880
21
-27.783178
0
LINE
8
Docu
10
3.770678
20
-15.317620
11
-21.160438
21
-15.317620
0
LINE
8
Plan
10
-38.014880
20
-29.168240
11
20.625120
21
-29.168240
0
ARC
8
Plan
10
20.625120
20
-28.168240
40
1.000000
50
270.000
51
0.000
0
LINE
8
Plan
10
21.625120
20
-28.168240
11
21.625120
21
-2.467000
0
ARC
8
Plan
10
20.625120
20
-2.467000
40
1.000000
50
0.000
51
90.000
0
LINE
8
Plan
10
20.625120
20
-1.467000
11
-38.014880
21
-1.467000
0
ARC
8
Plan
10
-38.014880
20
-2.467000
40
1.000000
50
90.000
51
180.000
0
LINE
8
Plan
10
-39.014880
20
-2.467000
11
-39.014880
21
-28.168240
0
ARC
8
Plan
10
-38.014880
20
-28.168240
40
1.000000
50
180.000
51
270.000
0
TEXT
8
Docu
71
2
50
0.000
10
112.920700
20
38.841600
40
1.000000
1
Ausbruch
0
LINE
8
Docu
10
112.920700
20
111.107100
11
112.920700
21
-33.423900
0
LINE
8
Docu
10
40.655200
20
38.841600
11
185.186200
21
38.841600
0
LINE
8
Plan
10
280.973200
20
-41.453400
11
-55.131800
21
-41.453400
0
ARC
8
Plan
10
-55.131800
20
-41.453400
40
0.000000
50
180.000
51
270.000
0
LINE
8
Plan
10
-55.131800
20
-41.453400
11
-55.131800
21
119.136600
0
ARC
8
Plan
10
-55.131800
20
119.136600
40
0.000000
50
90.000
51
180.000
0
LINE
8
Plan
10
-55.131800
20
119.136600
11
280.973200
21
119.136600
0
ARC
8
Plan
10
280.973200
20
119.136600
40
0.000000
50
0.000
51
90.000
0
LINE
8
Plan
10
280.973200
20
119.136600
11
280.973200
21
-41.453400
0
ARC
8
Plan
10
280.973200
20
-41.453400
40
0.000000
50
270.000
51
0.000
0
ENDSEC
0
EOF
